<svg width="121" height="32" viewBox="0 0 121 32" fill="none" xmlns="http://www.w3.org/2000/svg">
<path d="M62.408 13L62.396 5.812L58.88 11.884H58.58L55.064 5.836V13H54.464V4.6H54.98L58.736 11.092L62.492 4.6H62.996L63.008 13H62.408ZM69.7047 13.06C68.6407 13.06 67.8127 12.752 67.2207 12.136C66.6367 11.52 66.3447 10.62 66.3447 9.436V4.6H66.9567V9.412C66.9567 10.444 67.1927 11.216 67.6647 11.728C68.1367 12.24 68.8207 12.496 69.7167 12.496C70.6047 12.496 71.2847 12.24 71.7567 11.728C72.2287 11.216 72.4647 10.444 72.4647 9.412V4.6H73.0767V9.436C73.0767 10.62 72.7807 11.52 72.1887 12.136C71.5967 12.752 70.7687 13.06 69.7047 13.06ZM79.9763 13.06C79.1523 13.06 78.4083 12.876 77.7443 12.508C77.0803 12.132 76.5563 11.62 76.1723 10.972C75.7963 10.324 75.6083 9.6 75.6083 8.8C75.6083 8 75.7963 7.276 76.1723 6.628C76.5563 5.98 77.0803 5.472 77.7443 5.104C78.4083 4.728 79.1523 4.54 79.9763 4.54C80.8003 4.54 81.5443 4.724 82.2083 5.092C82.8723 5.46 83.3923 5.968 83.7683 6.616C84.1523 7.264 84.3443 7.992 84.3443 8.8C84.3443 9.608 84.1523 10.336 83.7683 10.984C83.3923 11.632 82.8723 12.14 82.2083 12.508C81.5443 12.876 80.8003 13.06 79.9763 13.06ZM79.9763 12.496C80.6803 12.496 81.3163 12.336 81.8843 12.016C82.4523 11.696 82.9003 11.256 83.2283 10.696C83.5563 10.128 83.7203 9.496 83.7203 8.8C83.7203 8.104 83.5563 7.476 83.2283 6.916C82.9003 6.348 82.4523 5.904 81.8843 5.584C81.3163 5.264 80.6803 5.104 79.9763 5.104C79.2723 5.104 78.6323 5.264 78.0563 5.584C77.4883 5.904 77.0403 6.348 76.7123 6.916C76.3843 7.476 76.2203 8.104 76.2203 8.8C76.2203 9.496 76.3843 10.128 76.7123 10.696C77.0403 11.256 77.4883 11.696 78.0563 12.016C78.6323 12.336 79.2723 12.496 79.9763 12.496ZM93.787 4.6V13H93.283L87.559 5.704V13H86.947V4.6H87.463L93.175 11.896V4.6H93.787ZM61.304 19.6V28H60.8L55.076 20.704V28H54.464V19.6H54.98L60.692 26.896V19.6H61.304ZM70.5134 27.448V28H64.7174V19.6H70.3334V20.152H65.3294V23.464H69.8054V24.004H65.3294V27.448H70.5134ZM74.8328 20.152H71.8088V19.6H78.4688V20.152H75.4448V28H74.8328V20.152ZM91.6633 19.6L88.8193 28H88.1713L85.5673 20.464L82.9513 28H82.3033L79.4473 19.6H80.0953L82.6513 27.16L85.2793 19.6H85.8673L88.4833 27.172L91.0633 19.6H91.6633ZM97.3894 28.06C96.5654 28.06 95.8214 27.876 95.1574 27.508C94.4934 27.132 93.9694 26.62 93.5854 25.972C93.2094 25.324 93.0214 24.6 93.0214 23.8C93.0214 23 93.2094 22.276 93.5854 21.628C93.9694 20.98 94.4934 20.472 95.1574 20.104C95.8214 19.728 96.5654 19.54 97.3894 19.54C98.2134 19.54 98.9574 19.724 99.6214 20.092C100.285 20.46 100.805 20.968 101.181 21.616C101.565 22.264 101.757 22.992 101.757 23.8C101.757 24.608 101.565 25.336 101.181 25.984C100.805 26.632 100.285 27.14 99.6214 27.508C98.9574 27.876 98.2134 28.06 97.3894 28.06ZM97.3894 27.496C98.0934 27.496 98.7294 27.336 99.2974 27.016C99.8654 26.696 100.313 26.256 100.641 25.696C100.969 25.128 101.133 24.496 101.133 23.8C101.133 23.104 100.969 22.476 100.641 21.916C100.313 21.348 99.8654 20.904 99.2974 20.584C98.7294 20.264 98.0934 20.104 97.3894 20.104C96.6854 20.104 96.0454 20.264 95.4694 20.584C94.9014 20.904 94.4534 21.348 94.1254 21.916C93.7974 22.476 93.6334 23.104 93.6334 23.8C93.6334 24.496 93.7974 25.128 94.1254 25.696C94.4534 26.256 94.9014 26.696 95.4694 27.016C96.0454 27.336 96.6854 27.496 97.3894 27.496ZM110.192 28L108.188 25.192C107.892 25.232 107.62 25.252 107.372 25.252H104.972V28H104.36V19.6H107.372C108.428 19.6 109.256 19.852 109.856 20.356C110.456 20.852 110.756 21.544 110.756 22.432C110.756 23.096 110.584 23.656 110.24 24.112C109.904 24.56 109.42 24.876 108.788 25.06L110.888 28H110.192ZM107.372 24.712C108.268 24.712 108.952 24.516 109.424 24.124C109.896 23.724 110.132 23.16 110.132 22.432C110.132 21.704 109.896 21.144 109.424 20.752C108.952 20.352 108.268 20.152 107.372 20.152H104.972V24.712H107.372ZM115.973 23.86L114.089 25.792V28H113.477V19.6H114.089V25L119.333 19.6H120.077L116.381 23.416L120.329 28H119.585L115.973 23.86Z" fill="#5551FF"/>
<path d="M0.589774 20.7277C0.915497 20.7277 1.17955 20.4637 1.17955 20.1379C1.17955 19.8122 0.915497 19.5482 0.589774 19.5482C0.264051 19.5482 0 19.8122 0 20.1379C0 20.4637 0.264051 20.7277 0.589774 20.7277Z" fill="#313144"/>
<path d="M8.78936 20.0143C9.11508 20.0143 9.37913 19.7502 9.37913 19.4245C9.37913 19.0988 9.11508 18.8347 8.78936 18.8347C8.46364 18.8347 8.19958 19.0988 8.19958 19.4245C8.19958 19.7502 8.46364 20.0143 8.78936 20.0143Z" fill="#313144"/>
<path d="M11.1585 23.3912C11.4842 23.3912 11.7483 23.1272 11.7483 22.8014C11.7483 22.4757 11.4842 22.2117 11.1585 22.2117C10.8328 22.2117 10.5687 22.4757 10.5687 22.8014C10.5687 23.1272 10.8328 23.3912 11.1585 23.3912Z" fill="#313144"/>
<path d="M18.1501 20.9179C18.4758 20.9179 18.7399 20.6539 18.7399 20.3282C18.7399 20.0025 18.4758 19.7384 18.1501 19.7384C17.8244 19.7384 17.5603 20.0025 17.5603 20.3282C17.5603 20.6539 17.8244 20.9179 18.1501 20.9179Z" fill="#313144"/>
<path d="M1.06536 2.73967C1.39108 2.73967 1.65513 2.47562 1.65513 2.14989C1.65513 1.82417 1.39108 1.56012 1.06536 1.56012C0.739637 1.56012 0.475586 1.82417 0.475586 2.14989C0.475586 2.47562 0.739637 2.73967 1.06536 2.73967Z" fill="#313144"/>
<path d="M1.68407 10.1974C2.18842 10.1974 2.59727 9.78851 2.59727 9.28417C2.59727 8.77982 2.18842 8.37097 1.68407 8.37097C1.17973 8.37097 0.770874 8.77982 0.770874 9.28417C0.770874 9.78851 1.17973 10.1974 1.68407 10.1974Z" fill="#313144"/>
<path d="M16.523 18.7586C16.9432 18.7586 17.284 18.4179 17.284 17.9976C17.284 17.5773 16.9432 17.2366 16.523 17.2366C16.1027 17.2366 15.762 17.5773 15.762 17.9976C15.762 18.4179 16.1027 18.7586 16.523 18.7586Z" fill="#313144"/>
<path d="M1.17921 28.0333C1.5995 28.0333 1.94021 27.6926 1.94021 27.2724C1.94021 26.8521 1.5995 26.5114 1.17921 26.5114C0.758924 26.5114 0.418213 26.8521 0.418213 27.2724C0.418213 27.6926 0.758924 28.0333 1.17921 28.0333Z" fill="#313144"/>
<path d="M7.04889 23.9904C7.51121 23.9904 7.88599 23.6156 7.88599 23.1533C7.88599 22.691 7.51121 22.3162 7.04889 22.3162C6.58657 22.3162 6.21179 22.691 6.21179 23.1533C6.21179 23.6156 6.58657 23.9904 7.04889 23.9904Z" fill="#313144"/>
<path d="M13.5176 26.8443C13.8853 26.8443 14.1834 26.5461 14.1834 26.1784C14.1834 25.8106 13.8853 25.5125 13.5176 25.5125C13.1498 25.5125 12.8517 25.8106 12.8517 26.1784C12.8517 26.5461 13.1498 26.8443 13.5176 26.8443Z" fill="#313144"/>
<path d="M3.56717 31.6671C4.1188 31.6671 4.56598 31.22 4.56598 30.6683C4.56598 30.1167 4.1188 29.6695 3.56717 29.6695C3.01554 29.6695 2.56836 30.1167 2.56836 30.6683C2.56836 31.22 3.01554 31.6671 3.56717 31.6671Z" fill="#313144"/>
<path d="M7.54323 6.94407C8.38906 6.94407 9.07474 6.25838 9.07474 5.41255C9.07474 4.56672 8.38906 3.88104 7.54323 3.88104C6.6974 3.88104 6.01172 4.56672 6.01172 5.41255C6.01172 6.25838 6.6974 6.94407 7.54323 6.94407Z" fill="#313144"/>
<path d="M5.16504 3.3484C6.08968 3.3484 6.83924 2.59883 6.83924 1.6742C6.83924 0.749564 6.08968 0 5.16504 0C4.24041 0 3.49084 0.749564 3.49084 1.6742C3.49084 2.59883 4.24041 3.3484 5.16504 3.3484Z" fill="#313144"/>
<path d="M5.78343 10.7111C6.57673 10.7111 7.21982 10.0681 7.21982 9.27476C7.21982 8.48147 6.57673 7.83838 5.78343 7.83838C4.99014 7.83838 4.34705 8.48147 4.34705 9.27476C4.34705 10.0681 4.99014 10.7111 5.78343 10.7111Z" fill="#313144"/>
<path d="M9.91226 10.0737C10.7476 10.0737 11.4248 9.39651 11.4248 8.56119C11.4248 7.72587 10.7476 7.04871 9.91226 7.04871C9.07694 7.04871 8.39978 7.72587 8.39978 8.56119C8.39978 9.39651 9.07694 10.0737 9.91226 10.0737Z" fill="#313144"/>
<path d="M4.06174 14.088C4.86029 14.088 5.50764 13.4407 5.50764 12.6421C5.50764 11.8436 4.86029 11.1962 4.06174 11.1962C3.2632 11.1962 2.61584 11.8436 2.61584 12.6421C2.61584 13.4407 3.2632 14.088 4.06174 14.088Z" fill="#313144"/>
<path d="M8.16178 13.6789C8.92355 13.6789 9.54109 13.0614 9.54109 12.2996C9.54109 11.5378 8.92355 10.9203 8.16178 10.9203C7.40001 10.9203 6.78247 11.5378 6.78247 12.2996C6.78247 13.0614 7.40001 13.6789 8.16178 13.6789Z" fill="#313144"/>
<path d="M12.2904 13.1368C12.9523 13.1368 13.4889 12.6002 13.4889 11.9383C13.4889 11.2763 12.9523 10.7397 12.2904 10.7397C11.6284 10.7397 11.0918 11.2763 11.0918 11.9383C11.0918 12.6002 11.6284 13.1368 12.2904 13.1368Z" fill="#313144"/>
<path d="M10.5495 16.8846C11.2115 16.8846 11.7481 16.348 11.7481 15.6861C11.7481 15.0241 11.2115 14.4875 10.5495 14.4875C9.88757 14.4875 9.35095 15.0241 9.35095 15.6861C9.35095 16.348 9.88757 16.8846 10.5495 16.8846Z" fill="#313144"/>
<path d="M6.41159 17.2461C7.07354 17.2461 7.61016 16.7095 7.61016 16.0475C7.61016 15.3856 7.07354 14.8489 6.41159 14.8489C5.74963 14.8489 5.21301 15.3856 5.21301 16.0475C5.21301 16.7095 5.74963 17.2461 6.41159 17.2461Z" fill="#313144"/>
<path d="M4.68022 21.1368C5.43674 21.1368 6.05002 20.5235 6.05002 19.767C6.05002 19.0105 5.43674 18.3972 4.68022 18.3972C3.9237 18.3972 3.31042 19.0105 3.31042 19.767C3.31042 20.5235 3.9237 21.1368 4.68022 21.1368Z" fill="#313144"/>
<path d="M2.92976 24.7229C3.60222 24.7229 4.14735 24.1778 4.14735 23.5053C4.14735 22.8329 3.60222 22.2877 2.92976 22.2877C2.2573 22.2877 1.71216 22.8329 1.71216 23.5053C1.71216 24.1778 2.2573 24.7229 2.92976 24.7229Z" fill="#313144"/>
<path d="M15.2674 23.7813C16.0187 23.7813 16.6277 23.1723 16.6277 22.421C16.6277 21.6697 16.0187 21.0607 15.2674 21.0607C14.5161 21.0607 13.9071 21.6697 13.9071 22.421C13.9071 23.1723 14.5161 23.7813 15.2674 23.7813Z" fill="#313144"/>
<path d="M12.8897 20.4328C13.6462 20.4328 14.2595 19.8196 14.2595 19.063C14.2595 18.3065 13.6462 17.6932 12.8897 17.6932C12.1332 17.6932 11.5199 18.3065 11.5199 19.063C11.5199 19.8196 12.1332 20.4328 12.8897 20.4328Z" fill="#313144"/>
<path d="M5.28874 28.2806C6.04526 28.2806 6.65854 27.6673 6.65854 26.9108C6.65854 26.1543 6.04526 25.541 5.28874 25.541C4.53223 25.541 3.91895 26.1543 3.91895 26.9108C3.91895 27.6673 4.53223 28.2806 5.28874 28.2806Z" fill="#313144"/>
<path d="M2.28309 17.4174C2.84523 17.4174 3.30093 16.9617 3.30093 16.3995C3.30093 15.8374 2.84523 15.3817 2.28309 15.3817C1.72096 15.3817 1.26526 15.8374 1.26526 16.3995C1.26526 16.9617 1.72096 17.4174 2.28309 17.4174Z" fill="#313144"/>
<path d="M14.6585 16.3329C15.2206 16.3329 15.6763 15.8772 15.6763 15.3151C15.6763 14.7529 15.2206 14.2972 14.6585 14.2972C14.0963 14.2972 13.6406 14.7529 13.6406 15.3151C13.6406 15.8772 14.0963 16.3329 14.6585 16.3329Z" fill="#313144"/>
<path d="M3.43387 7.03925C4.26919 7.03925 4.94636 6.36209 4.94636 5.52677C4.94636 4.69144 4.26919 4.01428 3.43387 4.01428C2.59855 4.01428 1.92139 4.69144 1.92139 5.52677C1.92139 6.36209 2.59855 7.03925 3.43387 7.03925Z" fill="#313144"/>
<path d="M39.4105 20.7277C39.7362 20.7277 40.0002 20.4637 40.0002 20.1379C40.0002 19.8122 39.7362 19.5482 39.4105 19.5482C39.0847 19.5482 38.8207 19.8122 38.8207 20.1379C38.8207 20.4637 39.0847 20.7277 39.4105 20.7277Z" fill="#313144"/>
<path d="M31.2101 20.0143C31.5359 20.0143 31.7999 19.7502 31.7999 19.4245C31.7999 19.0988 31.5359 18.8347 31.2101 18.8347C30.8844 18.8347 30.6204 19.0988 30.6204 19.4245C30.6204 19.7502 30.8844 20.0143 31.2101 20.0143Z" fill="#313144"/>
<path d="M28.8419 23.3912C29.1676 23.3912 29.4316 23.1272 29.4316 22.8014C29.4316 22.4757 29.1676 22.2117 28.8419 22.2117C28.5161 22.2117 28.2521 22.4757 28.2521 22.8014C28.2521 23.1272 28.5161 23.3912 28.8419 23.3912Z" fill="#313144"/>
<path d="M21.8502 20.9179C22.1759 20.9179 22.4399 20.6539 22.4399 20.3282C22.4399 20.0025 22.1759 19.7384 21.8502 19.7384C21.5244 19.7384 21.2604 20.0025 21.2604 20.3282C21.2604 20.6539 21.5244 20.9179 21.8502 20.9179Z" fill="#313144"/>
<path d="M38.9349 2.73967C39.2606 2.73967 39.5246 2.47562 39.5246 2.14989C39.5246 1.82417 39.2606 1.56012 38.9349 1.56012C38.6091 1.56012 38.3451 1.82417 38.3451 2.14989C38.3451 2.47562 38.6091 2.73967 38.9349 2.73967Z" fill="#313144"/>
<path d="M38.3161 10.1974C38.8205 10.1974 39.2293 9.78851 39.2293 9.28417C39.2293 8.77982 38.8205 8.37097 38.3161 8.37097C37.8118 8.37097 37.403 8.77982 37.403 9.28417C37.403 9.78851 37.8118 10.1974 38.3161 10.1974Z" fill="#313144"/>
<path d="M23.4769 18.7586C23.8972 18.7586 24.2379 18.4179 24.2379 17.9976C24.2379 17.5773 23.8972 17.2366 23.4769 17.2366C23.0567 17.2366 22.7159 17.5773 22.7159 17.9976C22.7159 18.4179 23.0567 18.7586 23.4769 18.7586Z" fill="#313144"/>
<path d="M38.8207 28.0333C39.241 28.0333 39.5817 27.6926 39.5817 27.2724C39.5817 26.8521 39.241 26.5114 38.8207 26.5114C38.4004 26.5114 38.0597 26.8521 38.0597 27.2724C38.0597 27.6926 38.4004 28.0333 38.8207 28.0333Z" fill="#313144"/>
<path d="M32.9516 23.9904C33.4139 23.9904 33.7887 23.6156 33.7887 23.1533C33.7887 22.691 33.4139 22.3162 32.9516 22.3162C32.4893 22.3162 32.1145 22.691 32.1145 23.1533C32.1145 23.6156 32.4893 23.9904 32.9516 23.9904Z" fill="#313144"/>
<path d="M26.4824 26.8443C26.8502 26.8443 27.1483 26.5461 27.1483 26.1784C27.1483 25.8106 26.8502 25.5125 26.4824 25.5125C26.1146 25.5125 25.8165 25.8106 25.8165 26.1784C25.8165 26.5461 26.1146 26.8443 26.4824 26.8443Z" fill="#313144"/>
<path d="M36.4328 31.6671C36.9844 31.6671 37.4316 31.22 37.4316 30.6683C37.4316 30.1167 36.9844 29.6695 36.4328 29.6695C35.8811 29.6695 35.434 30.1167 35.434 30.6683C35.434 31.22 35.8811 31.6671 36.4328 31.6671Z" fill="#313144"/>
<path d="M32.4569 6.94407C33.3028 6.94407 33.9884 6.25838 33.9884 5.41255C33.9884 4.56672 33.3028 3.88104 32.4569 3.88104C31.6111 3.88104 30.9254 4.56672 30.9254 5.41255C30.9254 6.25838 31.6111 6.94407 32.4569 6.94407Z" fill="#313144"/>
<path d="M34.8351 3.3484C35.7597 3.3484 36.5093 2.59883 36.5093 1.6742C36.5093 0.749564 35.7597 0 34.8351 0C33.9105 0 33.1609 0.749564 33.1609 1.6742C33.1609 2.59883 33.9105 3.3484 34.8351 3.3484Z" fill="#313144"/>
<path d="M34.2167 10.7111C35.0099 10.7111 35.653 10.0681 35.653 9.27476C35.653 8.48147 35.0099 7.83838 34.2167 7.83838C33.4234 7.83838 32.7803 8.48147 32.7803 9.27476C32.7803 10.0681 33.4234 10.7111 34.2167 10.7111Z" fill="#313144"/>
<path d="M30.0877 10.0737C30.923 10.0737 31.6002 9.39651 31.6002 8.56119C31.6002 7.72587 30.923 7.04871 30.0877 7.04871C29.2524 7.04871 28.5752 7.72587 28.5752 8.56119C28.5752 9.39651 29.2524 10.0737 30.0877 10.0737Z" fill="#313144"/>
<path d="M35.9386 14.088C36.7371 14.088 37.3845 13.4407 37.3845 12.6421C37.3845 11.8436 36.7371 11.1962 35.9386 11.1962C35.14 11.1962 34.4927 11.8436 34.4927 12.6421C34.4927 13.4407 35.14 14.088 35.9386 14.088Z" fill="#313144"/>
<path d="M31.838 13.6789C32.5998 13.6789 33.2174 13.0614 33.2174 12.2996C33.2174 11.5378 32.5998 10.9203 31.838 10.9203C31.0763 10.9203 30.4587 11.5378 30.4587 12.2996C30.4587 13.0614 31.0763 13.6789 31.838 13.6789Z" fill="#313144"/>
<path d="M27.7097 13.1368C28.3716 13.1368 28.9083 12.6002 28.9083 11.9383C28.9083 11.2763 28.3716 10.7397 27.7097 10.7397C27.0477 10.7397 26.5111 11.2763 26.5111 11.9383C26.5111 12.6002 27.0477 13.1368 27.7097 13.1368Z" fill="#313144"/>
<path d="M29.4506 16.8846C30.1126 16.8846 30.6492 16.348 30.6492 15.6861C30.6492 15.0241 30.1126 14.4875 29.4506 14.4875C28.7887 14.4875 28.2521 15.0241 28.2521 15.6861C28.2521 16.348 28.7887 16.8846 29.4506 16.8846Z" fill="#313144"/>
<path d="M33.5886 17.2461C34.2505 17.2461 34.7872 16.7095 34.7872 16.0475C34.7872 15.3856 34.2505 14.8489 33.5886 14.8489C32.9266 14.8489 32.39 15.3856 32.39 16.0475C32.39 16.7095 32.9266 17.2461 33.5886 17.2461Z" fill="#313144"/>
<path d="M35.3195 21.1368C36.076 21.1368 36.6893 20.5235 36.6893 19.767C36.6893 19.0105 36.076 18.3972 35.3195 18.3972C34.563 18.3972 33.9497 19.0105 33.9497 19.767C33.9497 20.5235 34.563 21.1368 35.3195 21.1368Z" fill="#313144"/>
<path d="M37.0698 24.7229C37.7422 24.7229 38.2874 24.1778 38.2874 23.5053C38.2874 22.8329 37.7422 22.2877 37.0698 22.2877C36.3973 22.2877 35.8522 22.8329 35.8522 23.5053C35.8522 24.1778 36.3973 24.7229 37.0698 24.7229Z" fill="#313144"/>
<path d="M24.7322 23.7813C25.4835 23.7813 26.0925 23.1723 26.0925 22.421C26.0925 21.6697 25.4835 21.0607 24.7322 21.0607C23.981 21.0607 23.3719 21.6697 23.3719 22.421C23.3719 23.1723 23.981 23.7813 24.7322 23.7813Z" fill="#313144"/>
<path d="M27.1109 20.4328C27.8674 20.4328 28.4807 19.8196 28.4807 19.063C28.4807 18.3065 27.8674 17.6932 27.1109 17.6932C26.3544 17.6932 25.7411 18.3065 25.7411 19.063C25.7411 19.8196 26.3544 20.4328 27.1109 20.4328Z" fill="#313144"/>
<path d="M34.7111 28.2806C35.4676 28.2806 36.0809 27.6673 36.0809 26.9108C36.0809 26.1543 35.4676 25.541 34.7111 25.541C33.9546 25.541 33.3413 26.1543 33.3413 26.9108C33.3413 27.6673 33.9546 28.2806 34.7111 28.2806Z" fill="#313144"/>
<path d="M37.7171 17.4174C38.2792 17.4174 38.7349 16.9617 38.7349 16.3995C38.7349 15.8374 38.2792 15.3817 37.7171 15.3817C37.1549 15.3817 36.6992 15.8374 36.6992 16.3995C36.6992 16.9617 37.1549 17.4174 37.7171 17.4174Z" fill="#313144"/>
<path d="M25.3412 16.3329C25.9033 16.3329 26.359 15.8772 26.359 15.3151C26.359 14.7529 25.9033 14.2972 25.3412 14.2972C24.7791 14.2972 24.3234 14.7529 24.3234 15.3151C24.3234 15.8772 24.7791 16.3329 25.3412 16.3329Z" fill="#313144"/>
<path d="M36.566 7.03925C37.4013 7.03925 38.0784 6.36209 38.0784 5.52677C38.0784 4.69144 37.4013 4.01428 36.566 4.01428C35.7306 4.01428 35.0535 4.69144 35.0535 5.52677C35.0535 6.36209 35.7306 7.03925 36.566 7.03925Z" fill="#313144"/>
<path d="M17.6363 27.0154C18.2983 27.0154 18.8349 26.4788 18.8349 25.8169C18.8349 25.1549 18.2983 24.6183 17.6363 24.6183C16.9744 24.6183 16.4377 25.1549 16.4377 25.8169C16.4377 26.4788 16.9744 27.0154 17.6363 27.0154Z" fill="#313144"/>
<path d="M22.3639 27.0154C23.0258 27.0154 23.5624 26.4788 23.5624 25.8169C23.5624 25.1549 23.0258 24.6183 22.3639 24.6183C21.7019 24.6183 21.1653 25.1549 21.1653 25.8169C21.1653 26.4788 21.7019 27.0154 22.3639 27.0154Z" fill="#313144"/>
<path d="M20.0045 23.9523C20.5614 23.9523 21.0129 23.5009 21.0129 22.944C21.0129 22.3871 20.5614 21.9357 20.0045 21.9357C19.4477 21.9357 18.9962 22.3871 18.9962 22.944C18.9962 23.5009 19.4477 23.9523 20.0045 23.9523Z" fill="#313144"/>
<path d="M15.8956 30.2212C16.2634 30.2212 16.5615 29.9231 16.5615 29.5553C16.5615 29.1876 16.2634 28.8895 15.8956 28.8895C15.5279 28.8895 15.2297 29.1876 15.2297 29.5553C15.2297 29.9231 15.5279 30.2212 15.8956 30.2212Z" fill="#313144"/>
<path d="M24.1043 30.2212C24.4721 30.2212 24.7702 29.9231 24.7702 29.5553C24.7702 29.1876 24.4721 28.8895 24.1043 28.8895C23.7366 28.8895 23.4385 29.1876 23.4385 29.5553C23.4385 29.9231 23.7366 30.2212 24.1043 30.2212Z" fill="#313144"/>
<path d="M20.0045 30.2972C20.5614 30.2972 21.0129 29.8458 21.0129 29.2889C21.0129 28.732 20.5614 28.2806 20.0045 28.2806C19.4477 28.2806 18.9962 28.732 18.9962 29.2889C18.9962 29.8458 19.4477 30.2972 20.0045 30.2972Z" fill="#313144"/>
</svg>
